<?xml version="1.0" encoding="UTF-8"?>
<svg width="27px" height="22px" viewBox="0 0 27 22" version="1.1" xmlns="http://www.w3.org/2000/svg" xmlns:xlink="http://www.w3.org/1999/xlink">
    <!-- Generator: Sketch 48.2 (47327) - http://www.bohemiancoding.com/sketch -->
    <title>Group 3</title>
    <desc>Created with Sketch.</desc>
    <defs>
        <linearGradient x1="50%" y1="0%" x2="50%" y2="100%" id="linearGradient-1">
            <stop stop-color="#222D65" stop-opacity="0.654466712" offset="0%"></stop>
            <stop stop-color="#000000" stop-opacity="0.5" offset="100%"></stop>
        </linearGradient>
    </defs>
    <g id="index1" stroke="none" stroke-width="1" fill="none" fill-rule="evenodd" transform="translate(-1190.000000, -126.000000)">
        <g id="Group-17" transform="translate(750.000000, 114.000000)" stroke="#979797">
            <g id="Group-16">
                <g id="Group-15" transform="translate(27.000000, 10.000000)">
                    <g id="Group-3" transform="translate(414.000000, 3.000000)">
                        <path d="M0,20 L25,20 L25,11.4755382 C23.7179487,14.0013046 22.1153846,15.2641879 20.1923077,15.2641879 C17.3076923,15.2641879 18.2692308,10.5283757 20.1923077,8.63405088 C16.3461538,8.63405088 15.3846154,12.4227006 13.4615385,12.4227006 C11.5384615,12.4227006 7.69230769,11.4755382 7.69230769,7.68688845 C7.69230769,3.89823875 9.61538462,2.00391389 14.4230769,2.00391389 C19.2307692,2.00391389 9.61538462,-1.78473581 4.80769231,1.05675147 C1.6025641,2.95107632 0,6.42400522 0,11.4755382 L0,20 Z" id="Path-46" fill="url(#linearGradient-1)"></path>
                        <path d="M17,4 C18.92,4 20.2,4.75 20.84,6.25 C21.48,7.75 20.2,7 17,4 Z" id="Path-47"></path>
                    </g>
                </g>
            </g>
        </g>
    </g>
</svg>