<?xml version="1.0" encoding="UTF-8"?>
<svg width="12px" height="27px" viewBox="0 0 12 27" version="1.1" xmlns="http://www.w3.org/2000/svg" xmlns:xlink="http://www.w3.org/1999/xlink">
    <!-- Generator: Sketch 48.2 (47327) - http://www.bohemiancoding.com/sketch -->
    <title>Group 7</title>
    <desc>Created with Sketch.</desc>
    <defs></defs>
    <g id="index1" stroke="none" stroke-width="1" fill="none" fill-rule="evenodd" transform="translate(-1092.000000, -123.000000)">
        <g id="Group-17" transform="translate(750.000000, 114.000000)">
            <g id="Group-16">
                <g id="Group-15" transform="translate(27.000000, 10.000000)">
                    <g id="Group-7" transform="translate(315.000000, 0.000000)">
                        <path d="M3.89509304,15.8586727 L3.89509304,2.47278228 C3.89509304,1.12427161 4.66689226,0.450016276 6.2104907,0.450016276 C7.75408913,0.450016276 8.52588835,1.12427161 8.52588835,2.47278228 L8.52588835,16.0679489 C10.0358679,16.9073387 11.0517767,18.4762215 11.0517767,20.2731231 C11.0517767,22.9542659 8.79001923,25.1277615 6,25.1277615 C3.20998077,25.1277615 0.948223305,22.9542659 0.948223305,20.2731231 C0.948223305,18.3138764 2.15599376,16.6257115 3.89509304,15.8586727 Z" id="Combined-Shape" stroke="#222D65"></path>
                        <path d="M4,3.5 L6,3.5" id="Path-166" stroke="#222D65" stroke-linecap="round"></path>
                        <path d="M4,5.5 L6,5.5" id="Path-166-Copy" stroke="#222D65" stroke-linecap="round"></path>
                        <path d="M4,7.5 L6,7.5" id="Path-166-Copy-2" stroke="#222D65" stroke-linecap="round"></path>
                        <path d="M4,9.5 L6,9.5" id="Path-166-Copy-3" stroke="#222D65" stroke-linecap="round"></path>
                        <path d="M5.33333333,18.0862772 L5.33333333,12.0333333 C5.33333333,11.573096 5.70642938,11.2 6.16666667,11.2 C6.62690396,11.2 7,11.573096 7,12.0333333 L7,18.199701 C7.88295239,18.5700481 8.5,19.4158469 8.5,20.4 C8.5,21.7254834 7.38071187,22.8 6,22.8 C4.61928813,22.8 3.5,21.7254834 3.5,20.4 C3.5,19.2961501 4.276271,18.3663557 5.33333333,18.0862772 Z" id="Combined-Shape" fill="#222D65"></path>
                    </g>
                </g>
            </g>
        </g>
    </g>
</svg>