<?xml version="1.0" encoding="UTF-8"?>
<svg width="12px" height="27px" viewBox="0 0 12 27" version="1.1" xmlns="http://www.w3.org/2000/svg" xmlns:xlink="http://www.w3.org/1999/xlink">
    <!-- Generator: Sketch 48.2 (47327) - http://www.bohemiancoding.com/sketch -->
    <title>Group 13</title>
    <desc>Created with Sketch.</desc>
    <defs></defs>
    <g id="index1" stroke="none" stroke-width="1" fill="none" fill-rule="evenodd" transform="translate(-994.000000, -124.000000)">
        <g id="Group-17" transform="translate(750.000000, 114.000000)">
            <g id="Group-16">
                <g id="Group-15" transform="translate(27.000000, 10.000000)">
                    <g id="Group-13" transform="translate(218.000000, 1.000000)">
                        <path d="M2.91666667,15.6098707 L2.91666667,2.04918033 C2.91666667,0.683060109 3.68055556,0 5.20833333,0 C6.73611111,0 7.5,0.683060109 7.5,2.04918033 L7.5,15.8218796 C8.99450343,16.6722307 10,18.2616008 10,20.0819672 C10,22.7981217 7.76142375,25 5,25 C2.23857625,25 0,22.7981217 0,20.0819672 C0,18.0971357 1.19539177,16.3869258 2.91666667,15.6098707 Z" id="Combined-Shape" stroke="#222D65"></path>
                        <circle id="Oval-11-Copy" fill="#222D65" cx="4.5" cy="16.5" r="1"></circle>
                        <path d="M6.5,13 C6.77614237,13 7,12.7761424 7,12.5 C7,12.2238576 6.77614237,12 6.5,12 C6.22385763,12 6,12.2238576 6,12.5 C6,12.7761424 6.22385763,13 6.5,13 Z" id="Oval-11-Copy-3" fill="#222D65"></path>
                        <circle id="Oval-11-Copy-2" fill="#222D65" cx="6.5" cy="16.5" r="1"></circle>
                        <path d="M6.5,19 C6.77614237,19 7,18.7761424 7,18.5 C7,18.2238576 6.77614237,18 6.5,18 C6.22385763,18 6,18.2238576 6,18.5 C6,18.7761424 6.22385763,19 6.5,19 Z" id="Oval-11-Copy-9" fill="#222D65"></path>
                        <circle id="Oval-11-Copy-11" fill="#222D65" cx="4.5" cy="13.5" r="1"></circle>
                        <path d="M4.5,19 C4.77614237,19 5,18.7761424 5,18.5 C5,18.2238576 4.77614237,18 4.5,18 C4.22385763,18 4,18.2238576 4,18.5 C4,18.7761424 4.22385763,19 4.5,19 Z" id="Oval-11-Copy-10" fill="#222D65"></path>
                        <path d="M6.5,10 C6.77614237,10 7,9.77614237 7,9.5 C7,9.22385763 6.77614237,9 6.5,9 C6.22385763,9 6,9.22385763 6,9.5 C6,9.77614237 6.22385763,10 6.5,10 Z" id="Oval-11-Copy-15" fill="#222D65"></path>
                        <path d="M3,19 C3.55228475,19 4,18.5522847 4,18 C4,17.4477153 3.55228475,17 3,17 C2.44771525,17 2,17.4477153 2,18 C2,18.5522847 2.44771525,19 3,19 Z" id="Oval-11-Copy-13" fill="#222D65"></path>
                        <circle id="Oval-11-Copy-14" fill="#222D65" cx="2.5" cy="21.5" r="1"></circle>
                        <path d="M5,24 C5.55228475,24 6,23.5522847 6,23 C6,22.4477153 5.55228475,22 5,22 C4.44771525,22 4,22.4477153 4,23 C4,23.5522847 4.44771525,24 5,24 Z" id="Oval-11-Copy-16" fill="#222D65"></path>
                        <path d="M5.5,22 C5.77614237,22 6,21.7761424 6,21.5 C6,21.2238576 5.77614237,21 5.5,21 C5.22385763,21 5,21.2238576 5,21.5 C5,21.7761424 5.22385763,22 5.5,22 Z" id="Oval-11-Copy-18" fill="#222D65"></path>
                        <path d="M7,21 C7.55228475,21 8,20.5522847 8,20 C8,19.4477153 7.55228475,19 7,19 C6.44771525,19 6,19.4477153 6,20 C6,20.5522847 6.44771525,21 7,21 Z" id="Oval-11-Copy-19" fill="#222D65"></path>
                        <path d="M6,16 C6.55228475,16 7,15.5522847 7,15 C7,14.4477153 6.55228475,14 6,14 C5.44771525,14 5,14.4477153 5,15 C5,15.5522847 5.44771525,16 6,16 Z" id="Oval-11-Copy-24" fill="#222D65"></path>
                        <path d="M5,12 C5.55228475,12 6,11.5522847 6,11 C6,10.4477153 5.55228475,10 5,10 C4.44771525,10 4,10.4477153 4,11 C4,11.5522847 4.44771525,12 5,12 Z" id="Oval-11-Copy-25" fill="#222D65"></path>
                        <path d="M8.5,19 C8.77614237,19 9,18.7761424 9,18.5 C9,18.2238576 8.77614237,18 8.5,18 C8.22385763,18 8,18.2238576 8,18.5 C8,18.7761424 8.22385763,19 8.5,19 Z" id="Oval-11-Copy-20" fill="#222D65"></path>
                        <path d="M8.5,21 C8.77614237,21 9,20.7761424 9,20.5 C9,20.2238576 8.77614237,20 8.5,20 C8.22385763,20 8,20.2238576 8,20.5 C8,20.7761424 8.22385763,21 8.5,21 Z" id="Oval-11-Copy-21" fill="#222D65"></path>
                        <path d="M7.5,22 C7.77614237,22 8,21.7761424 8,21.5 C8,21.2238576 7.77614237,21 7.5,21 C7.22385763,21 7,21.2238576 7,21.5 C7,21.7761424 7.22385763,22 7.5,22 Z" id="Oval-11-Copy-22" fill="#222D65"></path>
                        <path d="M6.5,23 C6.77614237,23 7,22.7761424 7,22.5 C7,22.2238576 6.77614237,22 6.5,22 C6.22385763,22 6,22.2238576 6,22.5 C6,22.7761424 6.22385763,23 6.5,23 Z" id="Oval-11-Copy-23" fill="#222D65"></path>
                        <path d="M3.5,21 C3.77614237,21 4,20.7761424 4,20.5 C4,20.2238576 3.77614237,20 3.5,20 C3.22385763,20 3,20.2238576 3,20.5 C3,20.7761424 3.22385763,21 3.5,21 Z" id="Oval-11-Copy-7" fill="#222D65"></path>
                        <circle id="Oval-11-Copy-5" fill="#222D65" cx="1.5" cy="19.5" r="1"></circle>
                    </g>
                </g>
            </g>
        </g>
    </g>
</svg>